<svg xmlns="http://www.w3.org/2000/svg" xmlns:xlink="http://www.w3.org/1999/xlink" width="250" zoomAndPan="magnify" viewBox="0 0 187.5 112.499997" height="150" preserveAspectRatio="xMidYMid meet" version="1.0"><defs><g/><clipPath id="7992f2a940"><path d="M 29.347656 11.230469 L 158 11.230469 L 158 56.152344 L 29.347656 56.152344 Z M 29.347656 11.230469 " clip-rule="nonzero"/></clipPath></defs><g clip-path="url(#7992f2a940)"><path fill="#404040" d="M 99.128906 50.34375 L 88.339844 50.34375 L 75.996094 38.339844 L 93.730469 19.53125 L 111.464844 38.34375 Z M 157.917969 52.070312 L 127.640625 22.605469 L 115.546875 34.375 L 93.730469 11.230469 L 71.917969 34.367188 L 59.828125 22.605469 L 29.550781 52.070312 L 31.371094 53.941406 L 31.578125 54.152344 L 33.519531 56.152344 L 59.828125 30.550781 L 86.140625 56.152344 L 86.152344 56.140625 L 101.316406 56.140625 L 101.324219 56.152344 L 101.335938 56.140625 L 127.640625 30.550781 L 153.949219 56.152344 L 155.933594 54.109375 L 156.097656 53.941406 L 157.917969 52.070312 " fill-opacity="1" fill-rule="nonzero"/></g><path fill="#404040" d="M 54.96875 44.546875 L 54.96875 48.738281 L 59.308594 48.738281 L 59.308594 44.398438 L 54.96875 44.398438 L 54.96875 44.546875 " fill-opacity="1" fill-rule="nonzero"/><path fill="#404040" d="M 60.355469 44.546875 L 60.355469 48.738281 L 64.691406 48.738281 L 64.691406 44.398438 L 60.355469 44.398438 L 60.355469 44.546875 " fill-opacity="1" fill-rule="nonzero"/><path fill="#404040" d="M 54.96875 49.917969 L 54.96875 54.109375 L 59.308594 54.109375 L 59.308594 49.769531 L 54.96875 49.769531 L 54.96875 49.917969 " fill-opacity="1" fill-rule="nonzero"/><path fill="#404040" d="M 60.355469 49.917969 L 60.355469 54.109375 L 64.691406 54.109375 L 64.691406 49.769531 L 60.355469 49.769531 L 60.355469 49.917969 " fill-opacity="1" fill-rule="nonzero"/><path fill="#404040" d="M 122.773438 44.546875 L 122.773438 48.738281 L 127.113281 48.738281 L 127.113281 44.398438 L 122.773438 44.398438 L 122.773438 44.546875 " fill-opacity="1" fill-rule="nonzero"/><path fill="#404040" d="M 128.160156 44.546875 L 128.160156 48.738281 L 132.5 48.738281 L 132.5 44.398438 L 128.160156 44.398438 L 128.160156 44.546875 " fill-opacity="1" fill-rule="nonzero"/><path fill="#404040" d="M 122.773438 49.917969 L 122.773438 54.109375 L 127.113281 54.109375 L 127.113281 49.769531 L 122.773438 49.769531 L 122.773438 49.917969 " fill-opacity="1" fill-rule="nonzero"/><path fill="#404040" d="M 128.160156 49.917969 L 128.160156 54.109375 L 132.5 54.109375 L 132.5 49.769531 L 128.160156 49.769531 L 128.160156 49.917969 " fill-opacity="1" fill-rule="nonzero"/><path fill="#404040" d="M 88.867188 32.941406 L 88.867188 37.132812 L 93.207031 37.132812 L 93.207031 32.792969 L 88.867188 32.792969 L 88.867188 32.941406 " fill-opacity="1" fill-rule="nonzero"/><path fill="#404040" d="M 98.589844 36.980469 L 98.589844 32.792969 L 94.253906 32.792969 L 94.253906 37.132812 L 98.589844 37.132812 L 98.589844 36.980469 " fill-opacity="1" fill-rule="nonzero"/><path fill="#404040" d="M 88.867188 38.316406 L 88.867188 42.503906 L 93.207031 42.503906 L 93.207031 38.164062 L 88.867188 38.164062 L 88.867188 38.316406 " fill-opacity="1" fill-rule="nonzero"/><path fill="#404040" d="M 98.589844 42.355469 L 98.589844 38.164062 L 94.253906 38.164062 L 94.253906 42.503906 L 98.589844 42.503906 L 98.589844 42.355469 " fill-opacity="1" fill-rule="nonzero"/><g fill="#404040" fill-opacity="1"><g transform="translate(21.309281, 79.075539)"><g><path d="M 7.800781 0.292969 C 11.558594 0.292969 14.398438 -1.984375 14.984375 -5.449219 L 10.992188 -5.449219 C 10.507812 -4.164062 9.359375 -3.347656 7.878906 -3.347656 C 5.972656 -3.347656 4.652344 -4.765625 4.652344 -6.808594 C 4.652344 -8.871094 5.992188 -10.273438 7.917969 -10.273438 C 9.339844 -10.273438 10.527344 -9.476562 10.933594 -8.25 L 14.90625 -8.25 C 14.203125 -11.695312 11.402344 -13.914062 7.765625 -13.914062 C 3.5625 -13.914062 0.660156 -11.011719 0.660156 -6.808594 C 0.660156 -2.605469 3.5625 0.292969 7.800781 0.292969 Z M 7.800781 0.292969 "/></g></g></g><g fill="#404040" fill-opacity="1"><g transform="translate(40.726343, 79.075539)"><g><path d="M 8.074219 0.292969 C 12.414062 0.292969 15.488281 -2.644531 15.488281 -6.808594 C 15.488281 -10.972656 12.414062 -13.914062 8.074219 -13.914062 C 3.734375 -13.914062 0.660156 -10.972656 0.660156 -6.808594 C 0.660156 -2.644531 3.734375 0.292969 8.074219 0.292969 Z M 4.652344 -6.808594 C 4.652344 -8.851562 6.070312 -10.273438 8.074219 -10.273438 C 10.097656 -10.273438 11.5 -8.851562 11.5 -6.808594 C 11.5 -4.765625 10.097656 -3.347656 8.074219 -3.347656 C 6.070312 -3.347656 4.652344 -4.765625 4.652344 -6.808594 Z M 4.652344 -6.808594 "/></g></g></g><g fill="#404040" fill-opacity="1"><g transform="translate(60.707559, 79.075539)"><g><path d="M 1.441406 0 L 10.933594 0 L 10.933594 -3.636719 L 5.371094 -3.636719 L 5.371094 -13.621094 L 1.441406 -13.621094 Z M 1.441406 0 "/></g></g></g><g fill="#404040" fill-opacity="1"><g transform="translate(75.942072, 79.075539)"><g><path d="M 8.074219 0.292969 C 12.414062 0.292969 15.488281 -2.644531 15.488281 -6.808594 C 15.488281 -10.972656 12.414062 -13.914062 8.074219 -13.914062 C 3.734375 -13.914062 0.660156 -10.972656 0.660156 -6.808594 C 0.660156 -2.644531 3.734375 0.292969 8.074219 0.292969 Z M 4.652344 -6.808594 C 4.652344 -8.851562 6.070312 -10.273438 8.074219 -10.273438 C 10.097656 -10.273438 11.5 -8.851562 11.5 -6.808594 C 11.5 -4.765625 10.097656 -3.347656 8.074219 -3.347656 C 6.070312 -3.347656 4.652344 -4.765625 4.652344 -6.808594 Z M 4.652344 -6.808594 "/></g></g></g><g fill="#404040" fill-opacity="1"><g transform="translate(95.923285, 79.075539)"><g><path d="M 7.800781 0.292969 C 11.558594 0.292969 14.398438 -1.984375 14.984375 -5.449219 L 10.992188 -5.449219 C 10.507812 -4.164062 9.359375 -3.347656 7.878906 -3.347656 C 5.972656 -3.347656 4.652344 -4.765625 4.652344 -6.808594 C 4.652344 -8.871094 5.992188 -10.273438 7.917969 -10.273438 C 9.339844 -10.273438 10.527344 -9.476562 10.933594 -8.25 L 14.90625 -8.25 C 14.203125 -11.695312 11.402344 -13.914062 7.765625 -13.914062 C 3.5625 -13.914062 0.660156 -11.011719 0.660156 -6.808594 C 0.660156 -2.605469 3.5625 0.292969 7.800781 0.292969 Z M 7.800781 0.292969 "/></g></g></g><g fill="#404040" fill-opacity="1"><g transform="translate(115.340344, 79.075539)"><g><path d="M 9.574219 0 L 13.503906 0 L 13.503906 -13.621094 L 9.574219 -13.621094 L 9.574219 -8.738281 L 5.371094 -8.738281 L 5.371094 -13.621094 L 1.441406 -13.621094 L 1.441406 0 L 5.371094 0 L 5.371094 -5.117188 L 9.574219 -5.117188 Z M 9.574219 0 "/></g></g></g><g fill="#404040" fill-opacity="1"><g transform="translate(134.095974, 79.075539)"><g><path d="M 7.296875 0.292969 C 10.972656 0.292969 13.25 -1.945312 13.25 -5.605469 L 13.25 -13.621094 L 9.339844 -13.621094 L 9.339844 -5.855469 C 9.339844 -4.242188 8.660156 -3.386719 7.296875 -3.386719 C 5.933594 -3.386719 5.253906 -4.242188 5.253906 -5.855469 L 5.253906 -13.621094 L 1.324219 -13.621094 L 1.324219 -5.605469 C 1.324219 -1.945312 3.621094 0.292969 7.296875 0.292969 Z M 7.296875 0.292969 "/></g></g></g><g fill="#404040" fill-opacity="1"><g transform="translate(152.501441, 79.075539)"><g><path d="M 1.441406 0 L 8.425781 0 C 11.1875 0 13.113281 -1.554688 13.113281 -3.792969 C 13.113281 -5.234375 12.335938 -6.402344 11.050781 -6.964844 C 12.101562 -7.570312 12.707031 -8.660156 12.707031 -9.960938 C 12.707031 -12.199219 10.914062 -13.621094 8.074219 -13.621094 L 1.441406 -13.621094 Z M 5.292969 -2.917969 L 5.292969 -5.46875 L 7.667969 -5.46875 C 8.601562 -5.46875 9.125 -5 9.125 -4.203125 C 9.125 -3.386719 8.601562 -2.917969 7.667969 -2.917969 Z M 5.292969 -8.269531 L 5.292969 -10.722656 L 7.335938 -10.722656 C 8.25 -10.722656 8.757812 -10.273438 8.757812 -9.496094 C 8.757812 -8.699219 8.25 -8.269531 7.335938 -8.269531 Z M 5.292969 -8.269531 "/></g></g></g></svg>