<svg xmlns="http://www.w3.org/2000/svg" xmlns:xlink="http://www.w3.org/1999/xlink" width="250" zoomAndPan="magnify" viewBox="0 0 187.5 112.499997" height="150" preserveAspectRatio="xMidYMid meet" version="1.0"><defs><g/><clipPath id="c078417a9e"><path d="M 14 10.742188 L 173 10.742188 L 173 66.742188 L 14 66.742188 Z M 14 10.742188 " clip-rule="nonzero"/></clipPath></defs><g clip-path="url(#c078417a9e)"><path fill="#a4d3ff" d="M 100.183594 59.179688 L 86.820312 59.179688 L 71.53125 44.3125 L 93.496094 21.023438 L 115.460938 44.320312 Z M 173 61.316406 L 135.5 24.832031 L 120.515625 39.402344 L 93.496094 10.742188 L 66.476562 39.394531 L 51.503906 24.832031 L 14.003906 61.316406 L 16.257812 63.636719 L 16.511719 63.898438 L 18.921875 66.371094 L 51.503906 34.667969 L 84.097656 66.371094 L 84.109375 66.359375 L 102.894531 66.359375 L 102.902344 66.371094 L 102.914062 66.359375 L 102.917969 66.359375 L 102.917969 66.355469 L 135.496094 34.667969 L 168.082031 66.371094 L 170.539062 63.84375 L 170.742188 63.636719 L 173 61.316406 " fill-opacity="1" fill-rule="nonzero"/></g><path fill="#a4d3ff" d="M 45.488281 52 L 45.488281 57.1875 L 50.859375 57.1875 L 50.859375 51.816406 L 45.488281 51.816406 L 45.488281 52 " fill-opacity="1" fill-rule="nonzero"/><path fill="#a4d3ff" d="M 52.15625 52 L 52.15625 57.1875 L 57.53125 57.1875 L 57.53125 51.816406 L 52.15625 51.816406 L 52.15625 52 " fill-opacity="1" fill-rule="nonzero"/><path fill="#a4d3ff" d="M 45.488281 58.65625 L 45.488281 63.84375 L 50.859375 63.84375 L 50.859375 58.46875 L 45.488281 58.46875 L 45.488281 58.65625 " fill-opacity="1" fill-rule="nonzero"/><path fill="#a4d3ff" d="M 52.15625 58.65625 L 52.15625 63.84375 L 57.53125 63.84375 L 57.53125 58.46875 L 52.15625 58.46875 L 52.15625 58.65625 " fill-opacity="1" fill-rule="nonzero"/><path fill="#a4d3ff" d="M 129.46875 52 L 129.46875 57.1875 L 134.84375 57.1875 L 134.84375 51.816406 L 129.46875 51.816406 L 129.46875 52 " fill-opacity="1" fill-rule="nonzero"/><path fill="#a4d3ff" d="M 136.140625 52 L 136.140625 57.1875 L 141.515625 57.1875 L 141.515625 51.816406 L 136.140625 51.816406 L 136.140625 52 " fill-opacity="1" fill-rule="nonzero"/><path fill="#a4d3ff" d="M 129.46875 58.65625 L 129.46875 63.84375 L 134.84375 63.84375 L 134.84375 58.46875 L 129.46875 58.46875 L 129.46875 58.65625 " fill-opacity="1" fill-rule="nonzero"/><path fill="#a4d3ff" d="M 136.140625 58.65625 L 136.140625 63.84375 L 141.515625 63.84375 L 141.515625 58.46875 L 136.140625 58.46875 L 136.140625 58.65625 " fill-opacity="1" fill-rule="nonzero"/><path fill="#a4d3ff" d="M 87.472656 37.628906 L 87.472656 42.816406 L 92.847656 42.816406 L 92.847656 37.445312 L 87.472656 37.445312 L 87.472656 37.628906 " fill-opacity="1" fill-rule="nonzero"/><path fill="#a4d3ff" d="M 99.515625 42.632812 L 99.515625 37.445312 L 94.144531 37.445312 L 94.144531 42.816406 L 99.515625 42.816406 L 99.515625 42.632812 " fill-opacity="1" fill-rule="nonzero"/><path fill="#a4d3ff" d="M 87.472656 44.285156 L 87.472656 49.472656 L 92.847656 49.472656 L 92.847656 44.097656 L 87.472656 44.097656 L 87.472656 44.285156 " fill-opacity="1" fill-rule="nonzero"/><path fill="#a4d3ff" d="M 99.515625 49.285156 L 99.515625 44.097656 L 94.144531 44.097656 L 94.144531 49.472656 L 99.515625 49.472656 L 99.515625 49.285156 " fill-opacity="1" fill-rule="nonzero"/><g fill="#a4d3ff" fill-opacity="1"><g transform="translate(3.783647, 94.768927)"><g><path d="M 9.664062 0.363281 C 14.316406 0.363281 17.832031 -2.457031 18.554688 -6.746094 L 13.617188 -6.746094 C 13.011719 -5.15625 11.589844 -4.144531 9.761719 -4.144531 C 7.398438 -4.144531 5.757812 -5.902344 5.757812 -8.433594 C 5.757812 -10.988281 7.421875 -12.722656 9.808594 -12.722656 C 11.566406 -12.722656 13.039062 -11.734375 13.542969 -10.21875 L 18.460938 -10.21875 C 17.59375 -14.484375 14.121094 -17.230469 9.617188 -17.230469 C 4.410156 -17.230469 0.820312 -13.640625 0.820312 -8.433594 C 0.820312 -3.230469 4.410156 0.363281 9.664062 0.363281 Z M 9.664062 0.363281 "/></g></g></g><g fill="#a4d3ff" fill-opacity="1"><g transform="translate(27.831581, 94.768927)"><g><path d="M 10 0.363281 C 15.375 0.363281 19.183594 -3.277344 19.183594 -8.433594 C 19.183594 -13.589844 15.375 -17.230469 10 -17.230469 C 4.625 -17.230469 0.820312 -13.589844 0.820312 -8.433594 C 0.820312 -3.277344 4.625 0.363281 10 0.363281 Z M 5.757812 -8.433594 C 5.757812 -10.964844 7.519531 -12.722656 10 -12.722656 C 12.507812 -12.722656 14.242188 -10.964844 14.242188 -8.433594 C 14.242188 -5.902344 12.507812 -4.144531 10 -4.144531 C 7.519531 -4.144531 5.757812 -5.902344 5.757812 -8.433594 Z M 5.757812 -8.433594 "/></g></g></g><g fill="#a4d3ff" fill-opacity="1"><g transform="translate(52.578217, 94.768927)"><g><path d="M 1.785156 0 L 13.542969 0 L 13.542969 -4.507812 L 6.652344 -4.507812 L 6.652344 -16.867188 L 1.785156 -16.867188 Z M 1.785156 0 "/></g></g></g><g fill="#a4d3ff" fill-opacity="1"><g transform="translate(71.446084, 94.768927)"><g><path d="M 10 0.363281 C 15.375 0.363281 19.183594 -3.277344 19.183594 -8.433594 C 19.183594 -13.589844 15.375 -17.230469 10 -17.230469 C 4.625 -17.230469 0.820312 -13.589844 0.820312 -8.433594 C 0.820312 -3.277344 4.625 0.363281 10 0.363281 Z M 5.757812 -8.433594 C 5.757812 -10.964844 7.519531 -12.722656 10 -12.722656 C 12.507812 -12.722656 14.242188 -10.964844 14.242188 -8.433594 C 14.242188 -5.902344 12.507812 -4.144531 10 -4.144531 C 7.519531 -4.144531 5.757812 -5.902344 5.757812 -8.433594 Z M 5.757812 -8.433594 "/></g></g></g><g fill="#a4d3ff" fill-opacity="1"><g transform="translate(96.192716, 94.768927)"><g><path d="M 9.664062 0.363281 C 14.316406 0.363281 17.832031 -2.457031 18.554688 -6.746094 L 13.617188 -6.746094 C 13.011719 -5.15625 11.589844 -4.144531 9.761719 -4.144531 C 7.398438 -4.144531 5.757812 -5.902344 5.757812 -8.433594 C 5.757812 -10.988281 7.421875 -12.722656 9.808594 -12.722656 C 11.566406 -12.722656 13.039062 -11.734375 13.542969 -10.21875 L 18.460938 -10.21875 C 17.59375 -14.484375 14.121094 -17.230469 9.617188 -17.230469 C 4.410156 -17.230469 0.820312 -13.640625 0.820312 -8.433594 C 0.820312 -3.230469 4.410156 0.363281 9.664062 0.363281 Z M 9.664062 0.363281 "/></g></g></g><g fill="#a4d3ff" fill-opacity="1"><g transform="translate(120.240646, 94.768927)"><g><path d="M 11.855469 0 L 16.722656 0 L 16.722656 -16.867188 L 11.855469 -16.867188 L 11.855469 -10.820312 L 6.652344 -10.820312 L 6.652344 -16.867188 L 1.785156 -16.867188 L 1.785156 0 L 6.652344 0 L 6.652344 -6.339844 L 11.855469 -6.339844 Z M 11.855469 0 "/></g></g></g><g fill="#a4d3ff" fill-opacity="1"><g transform="translate(143.469399, 94.768927)"><g><path d="M 9.035156 0.363281 C 13.589844 0.363281 16.410156 -2.410156 16.410156 -6.941406 L 16.410156 -16.867188 L 11.566406 -16.867188 L 11.566406 -7.253906 C 11.566406 -5.253906 10.722656 -4.191406 9.035156 -4.191406 C 7.351562 -4.191406 6.507812 -5.253906 6.507812 -7.253906 L 6.507812 -16.867188 L 1.640625 -16.867188 L 1.640625 -6.941406 C 1.640625 -2.410156 4.480469 0.363281 9.035156 0.363281 Z M 9.035156 0.363281 "/></g></g></g><g fill="#a4d3ff" fill-opacity="1"><g transform="translate(166.264478, 94.768927)"><g><path d="M 1.785156 0 L 10.433594 0 C 13.855469 0 16.242188 -1.929688 16.242188 -4.699219 C 16.242188 -6.484375 15.277344 -7.929688 13.6875 -8.628906 C 14.988281 -9.375 15.738281 -10.722656 15.738281 -12.339844 C 15.738281 -15.109375 13.519531 -16.867188 10 -16.867188 L 1.785156 -16.867188 Z M 6.554688 -3.613281 L 6.554688 -6.773438 L 9.496094 -6.773438 C 10.652344 -6.773438 11.300781 -6.191406 11.300781 -5.207031 C 11.300781 -4.191406 10.652344 -3.613281 9.496094 -3.613281 Z M 6.554688 -10.242188 L 6.554688 -13.277344 L 9.085938 -13.277344 C 10.21875 -13.277344 10.84375 -12.722656 10.84375 -11.761719 C 10.84375 -10.773438 10.21875 -10.242188 9.085938 -10.242188 Z M 6.554688 -10.242188 "/></g></g></g></svg>